<svg width="52" height="51" viewBox="0 0 52 51" fill="none" xmlns="http://www.w3.org/2000/svg">
<path d="M25.003 1.16959C24.7402 1.2547 24.2492 1.32879 23.9276 1.35901C23.5111 1.39253 23.3059 1.49461 23.3125 1.68421C23.3198 1.89276 23.076 1.9772 22.3366 2.00302C21.0094 2.04937 20.7127 2.24956 21.0392 2.90254C21.2224 3.25681 21.3667 5.75745 21.5951 12.2984L21.8873 21.21L14.9286 21.434C5.92223 21.7295 3.68569 21.8266 4.27939 21.9767C4.92997 22.1248 4.5391 22.3473 3.31204 22.542C2.19741 22.6948 1.43067 23.0253 2.18971 23.0178C2.43618 23.0092 2.5905 23.0797 2.51798 23.1772C2.46441 23.274 2.5828 23.4027 2.75542 23.4536C2.947 23.5039 2.77703 23.5288 2.39718 23.5231C1.56098 23.4953 1.50609 23.5542 2.1214 23.7795C2.54446 23.9355 2.54446 23.9355 2.07114 23.9711C1.69195 23.9843 1.65536 24.0235 1.88817 24.1673C2.1406 24.3293 2.14126 24.3483 1.89479 24.3569C1.64832 24.3655 1.64898 24.3844 1.90141 24.5465C2.13422 24.6902 2.09762 24.7294 1.71844 24.7427L1.24445 24.7592L1.82647 25.1186C2.17569 25.3341 2.29474 25.4818 2.12477 25.5068C1.97309 25.5121 2.1477 25.6199 2.5119 25.721C2.99052 25.8372 3.08862 25.9287 2.84348 25.9752C2.20416 26.1494 2.65346 26.5134 3.70285 26.6665L4.73261 26.8014L3.78928 26.9672C3.09043 27.0676 2.99762 27.1278 3.41605 27.1511C3.94823 27.1705 3.9489 27.1895 3.23374 27.3663C2.81928 27.4567 2.15835 27.5557 1.77917 27.5689C1.38168 27.6018 1.06202 27.6889 1.06599 27.8027C1.0693 27.8974 1.24325 27.9863 1.47076 27.9783C1.67931 27.9711 1.81468 28.0423 1.76111 28.139C1.70688 28.2169 1.97827 28.3782 2.38105 28.497C3.35857 28.7666 7.37554 29.1009 8.56866 29.0213L9.55388 28.9679L8.50648 28.8716L7.45908 28.7753L8.59532 28.6977C13.4443 28.3954 17.786 28.2438 17.7906 28.3765C17.7939 28.4713 17.2847 28.5651 16.659 28.5869C16.0333 28.6088 15.5241 28.7025 15.5274 28.7973C15.5314 28.911 16.6134 28.9112 18.1478 28.8197C19.5684 28.7321 21.0479 28.6994 21.429 28.743L22.1149 28.814L22.2336 31.1257C22.2962 32.3764 22.4147 34.1376 22.4837 35.0274C22.5717 35.9165 22.66 37.356 22.71 38.2465C22.7714 39.4592 22.8172 39.6854 22.9138 39.1885C22.9927 38.7301 23.0668 39.2211 23.136 40.6614C23.1771 41.8368 23.3306 42.9704 23.4516 43.175C23.5537 43.3802 23.7122 44.115 23.7746 44.8152C23.9001 46.2345 24.297 47.8152 24.3025 46.8848C24.3119 46.0683 24.6715 46.0367 24.7 46.852C24.7514 47.7803 25.3165 49.8297 25.3502 49.1641C25.3742 48.7646 25.4135 48.8012 25.5464 49.3471C25.6348 49.7047 25.6264 48.3762 25.5196 46.4057C25.4312 44.4157 25.4009 42.4615 25.4811 42.0411L25.6063 41.2774L25.6707 42.0345C25.9583 44.8339 26.1962 46.2113 26.3752 45.9013C26.4647 45.7463 26.595 46.2163 26.7013 47.0858C26.9853 49.2399 27.2596 50.0276 27.0803 48.1546C26.9923 47.2655 26.9691 46.6019 27.047 46.6561C27.1058 46.711 27.1916 46.9927 27.2198 47.2575C27.2487 47.5412 27.3515 47.7654 27.4083 47.7635C27.4842 47.7608 27.5843 47.9092 27.6281 48.0785C27.6916 48.2661 27.6658 47.5267 27.5895 46.4284L27.4821 44.439L27.7839 45.4724C27.9555 46.0359 28.1508 47.282 28.2029 48.2293C28.2746 49.1949 28.3945 49.912 28.488 49.8708C28.5619 49.8112 28.5497 48.9195 28.4374 47.8794C28.3252 46.8393 28.2892 45.265 28.3333 44.3523L28.4273 42.6975L28.6223 44.4751C28.8172 46.2526 29.3711 47.9797 29.6861 47.7598C29.7789 47.6997 29.8552 47.1655 29.8347 46.5777L29.8348 45.4957L30.0322 46.7986C30.1339 47.5354 30.1949 48.1977 30.1407 48.2755C30.0865 48.3533 30.146 48.4272 30.2408 48.4238C30.3546 48.4199 30.4604 48.1884 30.4687 47.8844C30.4758 47.5424 30.517 47.6359 30.6323 48.2203C30.7443 48.71 30.7401 48.0457 30.6519 46.6062C30.3709 42.3639 29.9421 32.2612 29.9873 30.836C30.0214 29.6389 30.0723 29.4663 30.4299 29.3778C30.8065 29.2888 30.8065 29.2888 30.407 29.2647C30.1605 29.2733 29.9676 29.1852 29.965 29.1093C29.9623 29.0335 31.1698 28.8205 32.6629 28.6355C35.9329 28.2365 40.4067 28.0613 39.9988 28.3413C39.7577 28.5016 39.759 28.5395 40.0244 28.5303C40.1951 28.5243 40.4369 28.383 40.5643 28.2267C40.6917 28.0704 41.0094 27.9264 41.2938 27.9165C41.673 27.9032 41.7312 27.9392 41.509 28.0988C41.3051 28.2388 41.3639 28.2937 41.7993 28.2595C42.1216 28.2482 42.2524 28.1867 42.1177 28.1345C41.8679 28.0483 41.9697 27.703 42.2731 27.6924C42.3868 27.6885 42.4084 27.7636 42.3555 27.8794C42.3026 27.9951 42.3811 28.0683 42.5328 28.063C42.7034 28.0571 42.8328 27.9576 42.8295 27.8628C42.8255 27.7491 43.089 27.6829 43.393 27.6913C43.716 27.699 43.9651 27.7662 43.9671 27.8231C43.969 27.88 44.2731 27.8884 44.6509 27.8372C45.1229 27.7638 45.253 27.6833 45.0784 27.5755C44.9038 27.4677 45.0345 27.4062 45.4712 27.4099C46.0021 27.3914 46.0603 27.4273 45.7616 27.5706C44.9955 27.9201 46.0612 27.9968 47.3987 27.7033C48.8486 27.3679 49.1041 27.0742 47.8907 27.1166C47.284 27.1378 47.1493 27.0856 47.3533 26.9456C47.5755 26.7859 47.5742 26.748 47.2512 26.7403C46.8145 26.7366 47.5649 26.4826 48.7141 26.2337C49.1103 26.1629 49.3711 26.0209 49.3102 25.9091C49.2311 25.817 49.3415 25.7182 49.5311 25.7116C49.72 25.686 49.4506 25.5815 48.9152 25.4673C48.1116 25.2866 48.0534 25.2507 48.5267 25.2151C48.8483 25.1849 49.3556 25.0343 49.6537 24.8721C50.1949 24.6064 50.2138 24.6057 49.7385 24.5844C49.2639 24.582 49.2639 24.582 49.6325 24.2654L50.0011 23.9488L49.6272 24.1137C49.4219 24.2158 48.6662 24.3181 47.9281 24.3818C46.4702 24.4897 46.5265 24.4688 48.5615 24.037C49.5035 23.8333 49.8408 23.7076 49.591 23.6214C49.3033 23.5366 49.3961 23.4764 49.9799 23.3421C50.395 23.2706 50.8278 23.1606 50.9212 23.1194C51.0899 23.0566 49.3423 23.0227 48.7369 23.0818C48.5473 23.0884 48.5277 23.0701 48.6957 22.9883C48.8075 22.9274 48.8787 22.7921 48.7995 22.6999C48.7393 22.6071 48.7556 22.5306 48.8511 22.5463C48.9276 22.5626 49.1741 22.554 49.382 22.5277C49.6467 22.4995 49.6827 22.4413 49.5061 22.2766C49.3883 22.1668 48.7973 22.0926 48.1906 22.1138C47.0727 22.1718 47.053 22.1535 48.0303 21.8726L48.5945 21.72L48.1158 21.6038L47.6366 21.4687L48.1092 21.4143C48.374 21.386 48.6577 21.3571 48.7342 21.3734C48.8297 21.3891 48.8643 21.293 48.8217 21.1616C48.7602 21.0309 48.5281 20.9061 48.262 20.8964C48.0148 20.886 47.0453 20.844 46.0947 20.8012C45.1623 20.7389 44.5713 20.6646 44.8164 20.6181C45.4577 20.5008 45.2968 20.2406 44.5162 20.173C44.116 20.13 40.6478 20.2891 36.8017 20.4993C32.9373 20.7292 29.7528 20.8594 29.6939 20.8045C29.6161 20.7503 29.4689 17.6233 29.3372 13.8504C29.0984 7.55654 29.034 6.7995 28.5794 4.65137C28.0389 2.22151 27.7058 1.37893 27.1264 1.09544C26.7406 0.919089 25.6972 0.936544 25.003 1.16959Z" fill="#333333"/>
</svg>
