<svg width="50" height="47" viewBox="0 0 50 47" fill="none" xmlns="http://www.w3.org/2000/svg">
<path d="M39.668 0.0467148C37.868 0.221714 35.708 0.876717 33.843 1.81171C31.848 2.81672 30.233 3.99672 28.478 5.73172C26.743 7.44672 25.388 9.25172 24.253 11.3667C23.463 12.8317 22.813 14.5167 22.528 15.8167L22.463 16.1167L22.283 15.7667C20.423 12.1467 16.913 9.47172 12.628 8.42172C9.75299 7.71172 7.60299 7.84172 5.56799 8.83672C2.27299 10.4567 0.162993 14.0367 0.00799261 18.2917C-0.0720074 20.4817 0.447993 22.6967 1.59299 25.0167C2.51299 26.8867 3.64799 28.5317 5.35799 30.4917C6.07299 31.3067 8.30299 33.5267 9.36799 34.4767C15.528 39.9917 21.263 43.7367 26.848 45.8917C27.558 46.1667 27.768 46.1917 27.953 46.0067C27.998 45.9567 28.223 45.6017 28.448 45.2167C29.688 43.0917 31.313 40.9467 33.588 38.4317C34.548 37.3717 34.958 36.9367 37.088 34.7167C40.508 31.1617 40.508 31.1617 41.398 30.1917C46.868 24.2267 49.278 19.8517 49.903 14.7417C49.983 14.0667 49.983 11.8867 49.903 11.1667C49.688 9.28172 49.203 7.39172 48.518 5.76672C47.698 3.80672 46.423 2.14672 45.043 1.23172C43.593 0.271717 41.698 -0.148285 39.668 0.0467148ZM41.698 5.04671C43.583 5.23672 45.138 5.95172 46.273 7.15672C47.763 8.72672 48.548 11.2567 48.288 13.6317C47.963 16.6667 46.313 19.8167 43.068 23.6017C41.763 25.1217 40.523 26.4167 36.593 30.3667C34.433 32.5367 32.338 34.6767 31.943 35.1167C30.108 37.1567 28.573 39.1717 27.568 40.8617C27.408 41.1317 27.248 41.3617 27.218 41.3717C27.153 41.3967 25.698 40.8217 24.668 40.3667C21.173 38.8267 17.108 36.4117 12.743 33.3017C10.098 31.4167 8.17299 29.8267 6.49299 28.1417C4.00799 25.6567 2.45799 23.3417 1.61799 20.8667C1.26799 19.8367 1.22299 19.5867 1.22299 18.5917C1.22299 17.8817 1.24299 17.6267 1.33299 17.2267C1.87299 14.7767 3.31299 12.8017 5.28299 11.8217C6.55799 11.1817 8.53799 10.8567 10.368 10.9867C13.123 11.1767 15.633 12.1317 18.593 14.1067C20.068 15.0917 21.103 15.9567 21.923 16.8867L22.293 17.3017V17.7417C22.293 18.5117 22.643 19.5767 22.983 19.8467C23.213 20.0267 23.438 19.9417 23.608 19.6067C23.648 19.5317 23.798 19.0967 23.943 18.6417C25.323 14.2867 28.088 10.7317 32.268 7.95672C35.018 6.12672 37.238 5.26672 39.843 5.02172C40.258 4.98672 41.223 4.99672 41.698 5.04671Z" fill="#333333"/>
</svg>
