<svg width="168" height="47" viewBox="0 0 168 47" fill="none" xmlns="http://www.w3.org/2000/svg">
<path d="M52.2891 44.875C52.2891 45.1328 52.2305 45.3789 52.1133 45.6133C51.6445 45.8711 51.1523 46.0469 50.6367 46.1406C50.1445 46.2578 49.6523 46.3164 49.1602 46.3164C48.9258 46.3164 48.668 46.3047 48.3867 46.2812C48.1289 46.2812 47.8945 46.2578 47.6836 46.2109C47.6133 46.1875 47.5312 46.1406 47.4375 46.0703C47.3438 46 47.25 45.9648 47.1562 45.9648C46.9219 45.9648 46.6992 46 46.4883 46.0703C46.2773 46.1641 46.0547 46.2109 45.8203 46.2109C45.7031 46.2109 45.5859 46.1758 45.4688 46.1055C45.375 46.0352 45.2695 45.9883 45.1523 45.9648C44.9883 45.918 44.8242 45.9062 44.6602 45.9297C44.4961 45.9531 44.3203 45.9648 44.1328 45.9648C43.875 45.9648 43.6406 45.9297 43.4297 45.8594C43.2422 45.7891 43.0664 45.6602 42.9023 45.4727C42.3164 45.4023 41.7422 45.2852 41.1797 45.1211C40.6172 44.9805 40.0547 44.8164 39.4922 44.6289C38.9297 44.4648 38.3672 44.3008 37.8047 44.1367C37.2422 43.9961 36.668 43.9023 36.082 43.8555C35.9414 43.6914 35.7773 43.5625 35.5898 43.4688C35.4023 43.3984 35.2617 43.2695 35.168 43.082C35.0508 43.082 34.9688 43.0938 34.9219 43.1172C34.875 43.1641 34.793 43.1875 34.6758 43.1875C34.2773 42.8594 33.8438 42.5781 33.375 42.3438C32.9297 42.1094 32.4609 41.8867 31.9688 41.6758C31.5 41.4648 31.0312 41.2422 30.5625 41.0078C30.1172 40.7969 29.6953 40.5156 29.2969 40.1641H29.1211C28.9336 40.1875 28.7695 40.1406 28.6289 40.0234C28.5117 39.9297 28.3594 39.8828 28.1719 39.8828C28.0547 39.8828 27.9609 39.8945 27.8906 39.918C27.8203 39.7305 27.7148 39.5781 27.5742 39.4609C27.4336 39.3438 27.2812 39.2266 27.1172 39.1094C26.9766 39.0156 26.8359 38.9102 26.6953 38.793C26.5547 38.6992 26.4492 38.5703 26.3789 38.4062C25.793 38.1953 25.2188 37.9375 24.6562 37.6328C24.1172 37.3516 23.6367 36.9766 23.2148 36.5078C22.7461 36.4609 22.3594 36.3203 22.0547 36.0859C21.75 35.8281 21.4688 35.5117 21.2109 35.1367C20.6484 34.9492 20.1328 34.7031 19.6641 34.3984C19.1953 34.0938 18.7266 33.7773 18.2578 33.4492C17.8125 33.1211 17.332 32.8281 16.8164 32.5703C16.3242 32.2891 15.7617 32.0898 15.1289 31.9727C15.1055 31.8086 15.0352 31.6914 14.918 31.6211C14.8008 31.5273 14.6602 31.457 14.4961 31.4102C14.3555 31.3398 14.2148 31.2812 14.0742 31.2344C13.9336 31.1875 13.8281 31.0938 13.7578 30.9531C13.6875 30.9531 13.6172 30.9531 13.5469 30.9531C13.4766 30.9297 13.4062 30.918 13.3359 30.918C13.2656 30.918 13.1836 30.9297 13.0898 30.9531C13.0195 30.9531 12.9492 30.9531 12.8789 30.9531L12.9141 30.8477C12.9141 30.7539 12.8789 30.6953 12.8086 30.6719C12.7617 30.6484 12.6914 30.625 12.5977 30.6016C12.5039 30.5781 12.4219 30.543 12.3516 30.4961C12.2812 30.4492 12.2461 30.3438 12.2461 30.1797H12.1406C11.8828 30.1797 11.6484 30.1328 11.4375 30.0391C11.2266 29.9453 10.9922 29.875 10.7344 29.8281C10.6875 30.0859 10.6641 30.332 10.6641 30.5664V31.1992C10.6641 32.2539 10.7812 33.3672 11.0156 34.5391C11.25 35.6875 11.6133 36.7188 12.1055 37.6328C12.5977 37.8203 13.0195 38.0664 13.3711 38.3711C13.7227 38.6758 14.0625 39.0273 14.3906 39.4258C14.4141 40.0586 14.1797 40.5859 13.6875 41.0078C13.2188 41.4531 12.668 41.6758 12.0352 41.6758C11.6836 41.6758 11.3555 41.582 11.0508 41.3945C10.7695 41.2305 10.5352 40.9844 10.3477 40.6562C10.207 40.6562 10.0781 40.6797 9.96094 40.7266C9.84375 40.7969 9.70312 40.832 9.53906 40.832C9.46875 40.832 9.39844 40.8203 9.32812 40.7969C9.09375 40.3984 8.85938 40.0469 8.625 39.7422C8.41406 39.4375 8.27344 39.0273 8.20312 38.5117C7.94531 38.3945 7.78125 38.1836 7.71094 37.8789C7.66406 37.5742 7.53516 37.3281 7.32422 37.1406C7.23047 36.0859 7.10156 35.0312 6.9375 33.9766C6.79688 32.9219 6.72656 31.8672 6.72656 30.8125C6.72656 30.5781 6.73828 30.3438 6.76172 30.1094C6.78516 29.8516 6.80859 29.5938 6.83203 29.3359C6.78516 29.2188 6.71484 29.1133 6.62109 29.0195C6.55078 28.9023 6.49219 28.7852 6.44531 28.668C5.97656 28.7852 5.48438 28.9023 4.96875 29.0195C4.47656 29.1133 3.97266 29.1602 3.45703 29.1602C3.12891 29.1602 2.73047 29.1133 2.26172 29.0195C1.79297 28.9023 1.42969 28.75 1.17188 28.5625C0.984375 28.4453 0.855469 28.2344 0.785156 27.9297C0.691406 27.6016 0.644531 27.3203 0.644531 27.0859C0.644531 26.6875 0.714844 26.2891 0.855469 25.8906C0.996094 25.4688 1.18359 25.1055 1.41797 24.8008C2.56641 24.332 3.63281 23.7578 4.61719 23.0781C5.625 22.3984 6.60938 21.6602 7.57031 20.8633C7.59375 20.6289 7.62891 20.3945 7.67578 20.1602C7.74609 19.9258 7.78125 19.6797 7.78125 19.4219C7.78125 19.1406 7.71094 18.8711 7.57031 18.6133C7.71094 18.4727 7.78125 18.2969 7.78125 18.0859C7.78125 17.8516 7.83984 17.6406 7.95703 17.4531V17.2422C7.95703 17.1484 7.94531 17.0547 7.92188 16.9609C7.92188 16.8672 7.88672 16.7734 7.81641 16.6797C7.98047 15.7656 8.10938 14.8633 8.20312 13.9727C8.29688 13.0586 8.34375 12.1211 8.34375 11.1602C8.34375 11.0898 8.37891 10.9023 8.44922 10.5977C8.54297 10.2695 8.60156 10.0469 8.625 9.92969C8.71875 9.39062 8.77734 8.86328 8.80078 8.34766C8.84766 7.80859 8.90625 7.26953 8.97656 6.73047C9 6.54297 9.04688 6.29688 9.11719 5.99219C9.1875 5.6875 9.22266 5.47656 9.22266 5.35938C9.22266 5.19531 9.1875 5.08984 9.11719 5.04297C9.07031 4.97266 9.02344 4.86719 8.97656 4.72656C9.11719 4.1875 9.1875 3.64844 9.1875 3.10938C9.21094 2.54688 9.25781 1.99609 9.32812 1.45703C9.72656 1.29297 10.043 1.12891 10.2773 0.964844C10.5117 0.800781 10.8516 0.71875 11.2969 0.71875H11.3672C11.4141 1 11.5195 1.26953 11.6836 1.52734C11.8477 1.76172 12.0117 2.00781 12.1758 2.26562C12.3633 2.5 12.5273 2.73438 12.668 2.96875C12.8086 3.17969 12.8789 3.39062 12.8789 3.60156C12.8789 4 12.8438 4.43359 12.7734 4.90234C12.7031 5.37109 12.6445 5.80469 12.5977 6.20312C12.4805 7.25781 12.375 8.30078 12.2812 9.33203C12.1875 10.3398 12.0469 11.3711 11.8594 12.4258C11.9297 12.7539 11.9648 13.0586 11.9648 13.3398C11.9648 13.7617 11.9297 14.1836 11.8594 14.6055C11.7891 15.0273 11.7539 15.4609 11.7539 15.9062C11.7539 16.1172 11.7656 16.3398 11.7891 16.5742C11.8359 16.8086 11.9062 17.0195 12 17.207C12.7969 16.9961 13.5117 16.5625 14.1445 15.9062C14.2383 15.8125 14.332 15.6953 14.4258 15.5547C14.543 15.3906 14.6602 15.2617 14.7773 15.168C15.0117 14.9805 15.2578 14.8164 15.5156 14.6758C15.7969 14.5117 16.0664 14.3477 16.3242 14.1836C16.9336 13.7852 17.5195 13.375 18.082 12.9531C18.668 12.5078 19.2539 12.0742 19.8398 11.6523C21.5742 10.3867 23.25 9.07422 24.8672 7.71484C26.5078 6.33203 28.1016 4.87891 29.6484 3.35547C29.7188 2.95703 29.8594 2.64062 30.0703 2.40625C30.2812 2.17188 30.4688 1.89062 30.6328 1.5625C31.0781 1.39844 31.4648 1.15234 31.793 0.824219C31.9336 0.871094 32.0742 0.90625 32.2148 0.929688C32.3789 0.929688 32.5312 0.929688 32.6719 0.929688C32.8359 0.929688 32.9883 0.941406 33.1289 0.964844C33.293 0.964844 33.4336 1 33.5508 1.07031C33.5742 1.42188 33.6094 1.73828 33.6562 2.01953C33.7031 2.30078 33.8438 2.57031 34.0781 2.82812C34.0781 2.875 34.0781 2.92188 34.0781 2.96875C34.1016 3.01562 34.1133 3.0625 34.1133 3.10938C34.1133 3.36719 34.043 3.57812 33.9023 3.74219C33.7617 3.90625 33.6797 4.10547 33.6562 4.33984L31.8281 6.16797C31.2188 6.77734 30.6562 7.43359 30.1406 8.13672C29.9531 8.16016 29.7891 8.21875 29.6484 8.3125C29.5078 8.40625 29.3672 8.51172 29.2266 8.62891C29.1094 8.72266 28.9805 8.81641 28.8398 8.91016C28.6992 9.00391 28.5469 9.07422 28.3828 9.12109C27.9609 9.68359 27.4805 10.1992 26.9414 10.668C26.4023 11.1133 25.8516 11.5469 25.2891 11.9688C24.7266 12.3906 24.1641 12.8242 23.6016 13.2695C23.0625 13.6914 22.5586 14.1602 22.0898 14.6758C21.5977 14.9102 21.1172 15.1914 20.6484 15.5195C20.2031 15.8242 19.8398 16.2109 19.5586 16.6797H19.3828C19.2656 16.6797 19.1719 16.7148 19.1016 16.7852C19.0312 16.832 18.9375 16.8555 18.8203 16.8555C17.5547 17.957 16.2422 19 14.8828 19.9844C13.5234 20.9453 12.2227 22 10.9805 23.1484V24.0273C11.3789 24.2617 11.8125 24.4844 12.2812 24.6953C12.75 24.8828 13.207 25.0938 13.6523 25.3281C14.1211 25.5625 14.5547 25.8203 14.9531 26.1016C15.375 26.3594 15.7383 26.6758 16.043 27.0508C16.0898 27.0273 16.1484 27.0156 16.2188 27.0156C16.4297 27.0156 16.5938 27.0859 16.7109 27.2266C16.8281 27.3438 17.0273 27.3789 17.3086 27.332C17.4023 27.707 17.6133 27.9766 17.9414 28.1406C18.2695 28.3047 18.5977 28.4453 18.9258 28.5625C19.207 28.8438 19.4648 29.1133 19.6992 29.3711C19.9336 29.6055 20.2734 29.7578 20.7188 29.8281C20.7656 29.9219 20.8008 30.0273 20.8242 30.1445C20.8477 30.2617 20.8945 30.3672 20.9648 30.4609C21.4102 30.6016 21.832 30.8008 22.2305 31.0586C22.6523 31.3164 23.0625 31.5859 23.4609 31.8672C23.8594 32.125 24.2578 32.3828 24.6562 32.6406C25.0781 32.875 25.5234 33.0625 25.9922 33.2031C26.0625 33.4375 26.1914 33.6016 26.3789 33.6953C26.5898 33.7891 26.7539 33.9297 26.8711 34.1172H27.5039C27.5742 34.2344 27.668 34.3516 27.7852 34.4688C27.9023 34.5625 27.9844 34.7031 28.0312 34.8906C28.2188 34.9375 28.4297 35.0078 28.6641 35.1016C28.8984 35.1719 29.1094 35.2656 29.2969 35.3828C29.3672 35.4531 29.4141 35.5352 29.4375 35.6289C29.4844 35.7227 29.5547 35.8047 29.6484 35.875C29.7891 35.9922 30 36.0859 30.2812 36.1562C30.5859 36.2031 30.8438 36.2852 31.0547 36.4023C31.4766 36.6367 31.8867 36.8945 32.2852 37.1758C32.6836 37.4805 33.1055 37.7617 33.5508 38.0195L34.9219 38.7578C35.1562 38.875 35.3672 39.0039 35.5547 39.1445C35.7656 39.2852 35.9766 39.4141 36.1875 39.5312C36.6094 39.7188 37.0547 39.8359 37.5234 39.8828C38.0156 39.9531 38.4609 40.082 38.8594 40.2695C38.9766 40.3398 39.0586 40.4219 39.1055 40.5156C39.1523 40.6328 39.2344 40.7266 39.3516 40.7969C39.5391 40.9141 39.832 40.9961 40.2305 41.043C40.6289 41.0898 40.957 41.1719 41.2148 41.2891C41.543 41.4297 41.8594 41.5586 42.1641 41.6758C42.4922 41.8164 42.8203 41.9805 43.1484 42.168C43.8516 42.2148 44.543 42.2969 45.2227 42.4141C45.9258 42.5312 46.6172 42.6484 47.2969 42.7656C47.9766 42.8828 48.6562 42.9883 49.3359 43.082C50.0391 43.1758 50.7422 43.2109 51.4453 43.1875C51.4453 43.2344 51.4688 43.2578 51.5156 43.2578C51.5859 43.2812 51.6445 43.293 51.6914 43.293C51.8555 43.5508 51.9961 43.8086 52.1133 44.0664C52.2305 44.3242 52.2891 44.5938 52.2891 44.875ZM57.1055 34.4336C57.0352 34.7617 56.8828 35.0312 56.6484 35.2422C56.4375 35.4297 56.1797 35.582 55.875 35.6992C55.5703 35.8164 55.2539 35.8984 54.9258 35.9453C54.6211 35.9688 54.3398 35.9805 54.082 35.9805C53.9648 35.9805 53.8477 35.9805 53.7305 35.9805C53.6367 35.957 53.5312 35.9453 53.4141 35.9453C53.2969 35.9453 53.2383 36.0039 53.2383 36.1211C53.2383 36.2383 53.1797 36.3203 53.0625 36.3672C52.9453 36.3203 52.8281 36.2852 52.7109 36.2617C52.5938 36.2383 52.4766 36.2266 52.3594 36.2266C52.1953 36.2266 52.0312 36.2383 51.8672 36.2617C51.7266 36.2852 51.5859 36.2969 51.4453 36.2969C51.2578 36.2969 51.1172 36.2734 51.0234 36.2266C50.9531 36.1797 50.8828 36.1328 50.8125 36.0859C50.7656 36.0156 50.707 35.9453 50.6367 35.875C50.5898 35.8047 50.5078 35.7461 50.3906 35.6992C50.2266 35.6289 50.0859 35.6172 49.9688 35.6641C49.875 35.7109 49.7227 35.6406 49.5117 35.4531C49.2305 35.2188 48.9844 34.9375 48.7734 34.6094C48.5859 34.2578 48.3984 33.8945 48.2109 33.5195C48.0234 33.1445 47.8242 32.7695 47.6133 32.3945C47.4023 32.0195 47.1562 31.6914 46.875 31.4102H46.5938C46.1719 31.4102 45.8789 31.5859 45.7148 31.9375C45.5977 31.8672 45.4805 31.7852 45.3633 31.6914C45.2461 31.5742 45.1172 31.4805 44.9766 31.4102C44.4375 31.5742 43.875 31.7148 43.2891 31.832C42.7031 31.9492 42.1172 32.0078 41.5312 32.0078H41.0391C40.8984 32.0078 40.7461 31.9844 40.582 31.9375C40.3477 32.0312 40.1367 32.1484 39.9492 32.2891C39.7617 32.4062 39.5508 32.4648 39.3164 32.4648C39.1758 32.4648 39.0117 32.418 38.8242 32.3242C38.6836 32.3242 38.6133 32.3828 38.6133 32.5C38.6367 32.6172 38.5664 32.6758 38.4023 32.6758H38.0859C37.7578 32.6758 37.4297 32.6875 37.1016 32.7109C36.7969 32.7344 36.4805 32.7461 36.1523 32.7461C35.707 32.7461 35.25 32.6875 34.7812 32.5703C34.6641 32.6406 34.5352 32.6758 34.3945 32.6758C34.3008 32.7227 34.2305 32.8047 34.1836 32.9219C34.1367 33.0156 34.0898 33.1094 34.043 33.2031C33.9961 33.2734 33.9258 33.3438 33.832 33.4141C33.7617 33.4609 33.6562 33.4727 33.5156 33.4492C33.4688 33.7305 33.3516 33.9531 33.1641 34.1172C32.9766 34.2812 32.8828 34.5273 32.8828 34.8555C32.625 34.9961 32.4141 35.1719 32.25 35.3828C32.0859 35.5938 31.9219 35.8164 31.7578 36.0508C31.5938 36.2852 31.418 36.5078 31.2305 36.7188C31.0664 36.9297 30.8555 37.0938 30.5977 37.2109C30.4805 37.3516 30.4453 37.5742 30.4922 37.8789C30.2344 38.0898 29.918 38.2773 29.543 38.4414C29.168 38.6055 28.8164 38.6875 28.4883 38.6875C27.8086 38.6875 27.3398 38.3242 27.082 37.5977C27.082 37.3633 27.1055 37.1172 27.1523 36.8594C27.1758 36.5781 27.2227 36.3203 27.293 36.0859C27.3633 35.8281 27.4688 35.6055 27.6094 35.418C27.75 35.207 27.9492 35.0547 28.207 34.9609C28.207 34.75 28.1367 34.6094 27.9961 34.5391C27.8555 34.4453 27.7969 34.293 27.8203 34.082C28.4531 33.7773 29.0039 33.3789 29.4727 32.8867C29.9414 32.3945 30.3633 31.8789 30.7383 31.3398C31.1367 30.7773 31.5352 30.2148 31.9336 29.6523C32.332 29.0898 32.7773 28.5859 33.2695 28.1406V27.4023C33.9727 26.6523 34.4297 25.8086 34.6406 24.8711C34.8984 24.8242 35.0625 24.707 35.1328 24.5195C35.2266 24.332 35.2734 24.1094 35.2734 23.8516C35.3906 23.8516 35.4609 23.8047 35.4844 23.7109C35.5312 23.5938 35.6367 23.5586 35.8008 23.6055C36.0117 23.043 36.2461 22.5273 36.5039 22.0586C36.7617 21.5898 37.0195 21.1211 37.2773 20.6523C37.5352 20.1602 37.7578 19.6562 37.9453 19.1406C38.1562 18.625 38.3086 18.0508 38.4023 17.418C38.7305 17.3945 38.9062 17.2422 38.9297 16.9609C38.9766 16.6562 39.0234 16.3867 39.0703 16.1523C39.4219 15.8242 39.6797 15.4375 39.8438 14.9922C40.0312 14.5469 40.1953 14.0898 40.3359 13.6211C40.4766 13.1289 40.6289 12.6484 40.793 12.1797C40.9805 11.6875 41.2383 11.2539 41.5664 10.8789V10.7734C41.5664 10.6562 41.5195 10.5859 41.4258 10.5625C41.332 10.5156 41.2852 10.4336 41.2852 10.3164C41.3086 10.293 41.3203 10.2695 41.3203 10.2461C41.6016 10.1289 41.8125 9.94141 41.9531 9.68359C42.0938 9.40234 42.3047 9.20312 42.5859 9.08594C43.0781 9.48438 43.5117 9.73047 43.8867 9.82422C44.2617 9.89453 44.7539 9.95312 45.3633 10C45.668 10.3281 45.832 10.7266 45.8555 11.1953C45.9023 11.6406 45.9844 12.0859 46.1016 12.5312C46.2891 13.2812 46.4883 14.0195 46.6992 14.7461C46.9336 15.4492 47.1094 16.1758 47.2266 16.9258C47.2969 17.3711 47.4258 17.793 47.6133 18.1914C47.8008 18.5898 47.9297 19 48 19.4219C48.0469 19.75 48.0469 20.125 48 20.5469C47.9531 20.9453 48 21.2969 48.1406 21.6016L48.3867 22.1641C48.5039 22.4219 48.5977 22.6914 48.668 22.9727C48.7617 23.2539 48.8438 23.5352 48.9141 23.8164C49.1016 24.5195 49.2656 25.2812 49.4062 26.1016C49.5703 26.8984 49.8164 27.625 50.1445 28.2812C50.2617 28.5156 50.4375 28.6797 50.6719 28.7734C50.9297 28.8672 51.2109 28.9375 51.5156 28.9844C51.8203 29.0078 52.1133 29.0195 52.3945 29.0195C52.6992 28.9961 52.957 28.9844 53.168 28.9844H53.5195C53.6602 28.9844 53.8008 29.0078 53.9414 29.0547C54.0352 29.2422 54.082 29.4062 54.082 29.5469C54.082 29.8281 53.9883 30.0508 53.8008 30.2148C53.6133 30.3789 53.5195 30.5664 53.5195 30.7773C53.5195 30.8945 53.5664 31.0234 53.6602 31.1641C53.5664 31.1406 53.4258 31.1289 53.2383 31.1289C52.6992 31.1289 52.1719 31.2227 51.6562 31.4102C51.8438 31.8086 52.0898 32.1484 52.3945 32.4297C52.7227 32.6875 53.0625 32.9336 53.4141 33.168C53.6484 32.9805 53.8945 32.8867 54.1523 32.8867C54.4336 32.8867 54.6914 32.957 54.9258 33.0977C55.1836 33.2148 55.4531 33.2734 55.7344 33.2734C55.9453 33.2734 56.0977 33.2383 56.1914 33.168C56.3789 33.3789 56.5312 33.6016 56.6484 33.8359C56.7656 34.0469 56.918 34.2461 57.1055 34.4336ZM46.1016 28.8086C46.0547 28.4102 45.9727 28.1289 45.8555 27.9648C45.7617 27.7773 45.6797 27.5547 45.6094 27.2969C45.5156 26.9688 45.4453 26.6172 45.3984 26.2422C45.375 25.8672 45.3281 25.5039 45.2578 25.1523C45.0938 24.3555 44.9062 23.5586 44.6953 22.7617C44.5078 21.9648 44.2617 21.1914 43.957 20.4414C44.0508 20.3008 44.0977 20.1719 44.0977 20.0547V19.9492C43.8867 19.7148 43.7344 19.4336 43.6406 19.1055C43.5469 18.7539 43.4531 18.4141 43.3594 18.0859C43.2891 17.7344 43.1836 17.418 43.043 17.1367C42.9258 16.832 42.7266 16.5859 42.4453 16.3984C42.375 16.5391 42.3398 16.7031 42.3398 16.8906C42.3398 17.0547 42.3516 17.207 42.375 17.3477C42.4219 17.4883 42.4453 17.6406 42.4453 17.8047C42.2109 17.9219 42.0352 18.1094 41.918 18.3672C41.8242 18.6016 41.6602 18.7891 41.4258 18.9297C41.2383 19.6797 40.9688 20.3945 40.6172 21.0742C40.2656 21.7305 39.8906 22.3867 39.4922 23.043C39.1172 23.6992 38.7539 24.3672 38.4023 25.0469C38.0508 25.7031 37.7695 26.3945 37.5586 27.1211C37.2539 27.332 37.043 27.6016 36.9258 27.9297C36.832 28.2578 36.7852 28.5859 36.7852 28.9141C36.9961 29.0312 37.2305 29.1016 37.4883 29.125C37.7695 29.125 38.0391 29.125 38.2969 29.125C38.5547 29.125 38.8008 29.1484 39.0352 29.1953C39.2695 29.2422 39.4805 29.3594 39.668 29.5469C39.9727 29.4531 40.3008 29.3945 40.6523 29.3711C41.0273 29.3242 41.332 29.2188 41.5664 29.0547C42.0352 29.2188 42.5391 29.3008 43.0781 29.3008C43.3594 29.3008 43.6289 29.2773 43.8867 29.2305C44.168 29.1836 44.4375 29.125 44.6953 29.0547C44.9062 29.1016 45.0703 29.1836 45.1875 29.3008C45.3047 29.3945 45.4805 29.4297 45.7148 29.4062C45.832 29.3125 45.9023 29.2188 45.9258 29.125C45.9492 29.0078 46.0078 28.9023 46.1016 28.8086ZM75.9844 27.9648C75.9844 28.2227 75.8906 28.4219 75.7031 28.5625C75.5156 28.6797 75.4219 28.8438 75.4219 29.0547C75.4219 29.1484 75.4688 29.2656 75.5625 29.4062C75.2344 29.4062 75.0117 29.5117 74.8945 29.7227C74.7773 29.9336 74.6602 30.168 74.543 30.4258H74.0859C73.9688 30.4258 73.875 30.4492 73.8047 30.4961C73.7344 30.543 73.6641 30.6133 73.5938 30.707C73.5469 30.7773 73.4766 30.8945 73.3828 31.0586C72.9375 31.1523 72.5039 31.3047 72.082 31.5156C71.6836 31.7031 71.2852 31.9141 70.8867 32.1484C70.5117 32.3594 70.125 32.582 69.7266 32.8164C69.3281 33.0273 68.918 33.2031 68.4961 33.3438C68.2852 33.6953 67.9805 33.9766 67.582 34.1875H67.4766C67.3594 34.2109 67.2539 34.1992 67.1602 34.1523C67.0898 34.082 66.9961 34.0469 66.8789 34.0469C66.8086 34.0469 66.7617 34.0586 66.7383 34.082C66.0352 34.5508 65.25 34.7852 64.3828 34.7852C64.1484 34.7852 63.9258 34.7734 63.7148 34.75C63.5039 34.7031 63.2812 34.6797 63.0469 34.6797C62.9766 34.6797 62.9297 34.7031 62.9062 34.75L62.8359 34.8906C62.8125 34.9375 62.7773 34.9844 62.7305 35.0312C62.707 35.0781 62.625 35.1016 62.4844 35.1016C62.2266 35.1016 61.9688 35.0664 61.7109 34.9961C61.4531 34.9258 61.1836 34.9141 60.9023 34.9609C60.3633 34.6562 59.9414 34.3633 59.6367 34.082C59.332 33.8008 59.0508 33.3789 58.793 32.8164C58.6758 32.5586 58.5117 32.3125 58.3008 32.0781C58.1133 31.8438 57.9727 31.5859 57.8789 31.3047C57.8555 31.2109 57.8203 31.0469 57.7734 30.8125C57.7266 30.5547 57.6797 30.2852 57.6328 30.0039C57.5859 29.7227 57.5391 29.4531 57.4922 29.1953C57.4688 28.9375 57.457 28.7617 57.457 28.668C57.457 28.3867 57.4688 28.1172 57.4922 27.8594C57.5391 27.5781 57.5859 27.2969 57.6328 27.0156C57.7734 26.125 57.8672 25.2344 57.9141 24.3438C57.9844 23.4297 58.1836 22.5508 58.5117 21.707C58.4648 21.4492 58.4414 21.2031 58.4414 20.9688V20.1953C58.4414 19.75 58.3828 19.375 58.2656 19.0703C58.4531 18.7656 58.5469 18.4258 58.5469 18.0508C58.5469 17.6289 58.3711 17.3828 58.0195 17.3125V17.207C58.0195 16.7148 57.8555 16.3281 57.5273 16.0469C57.5273 15.2266 57.7266 14.6172 58.125 14.2188C58.5469 13.7969 59.0977 13.4336 59.7773 13.1289C59.8711 12.9883 59.9062 12.8711 59.8828 12.7773C60.0469 12.8242 60.1992 12.8711 60.3398 12.918C60.4805 12.9648 60.6211 12.9883 60.7617 12.9883C60.9961 12.9883 61.207 12.9531 61.3945 12.8828C61.4648 13.1641 61.6406 13.3398 61.9219 13.4102C62.2266 13.457 62.4727 13.5273 62.6602 13.6211V14.0781C62.6602 14.8047 62.8359 15.4961 63.1875 16.1523C63.0938 16.3398 63.0352 16.5391 63.0117 16.75C62.9883 16.9609 62.9766 17.1602 62.9766 17.3477C62.9766 17.6289 62.9883 17.9102 63.0117 18.1914C63.0352 18.4727 63.0469 18.7422 63.0469 19C63.0469 19.2812 63.0117 19.5625 62.9414 19.8438C62.8945 20.125 62.7656 20.3711 62.5547 20.582C62.5312 20.8867 62.5078 21.2383 62.4844 21.6367C62.4844 22.0117 62.4609 22.3984 62.4141 22.7969C62.3906 23.1953 62.332 23.582 62.2383 23.957C62.1445 24.332 62.0039 24.6367 61.8164 24.8711C61.793 25.2227 61.7695 25.5859 61.7461 25.9609C61.7461 26.3125 61.7461 26.6523 61.7461 26.9805C61.7461 27.4961 61.7695 28.1055 61.8164 28.8086C61.8867 29.5117 62.0508 30.0977 62.3086 30.5664C62.4258 30.7539 62.6484 30.8945 62.9766 30.9883C63.3281 31.082 63.6094 31.1289 63.8203 31.1289C64.0781 31.1289 64.3359 31.0938 64.5938 31.0234C64.875 30.9297 65.0742 30.7773 65.1914 30.5664C65.332 30.5898 65.4258 30.6602 65.4727 30.7773C65.5195 30.8945 65.6016 30.9883 65.7188 31.0586C67.0547 30.4961 68.3906 29.957 69.7266 29.4414C71.0625 28.9258 72.375 28.3281 73.6641 27.6484C73.8516 27.7422 74.0508 27.7891 74.2617 27.7891C74.4961 27.7891 74.7305 27.7656 74.9648 27.7188C75.1992 27.6719 75.4336 27.6484 75.668 27.6484H75.9141C75.9609 27.7891 75.9844 27.8945 75.9844 27.9648ZM101.895 34.4336C101.824 34.7617 101.672 35.0312 101.438 35.2422C101.227 35.4297 100.969 35.582 100.664 35.6992C100.359 35.8164 100.043 35.8984 99.7148 35.9453C99.4102 35.9688 99.1289 35.9805 98.8711 35.9805C98.7539 35.9805 98.6367 35.9805 98.5195 35.9805C98.4258 35.957 98.3203 35.9453 98.2031 35.9453C98.0859 35.9453 98.0273 36.0039 98.0273 36.1211C98.0273 36.2383 97.9688 36.3203 97.8516 36.3672C97.7344 36.3203 97.6172 36.2852 97.5 36.2617C97.3828 36.2383 97.2656 36.2266 97.1484 36.2266C96.9844 36.2266 96.8203 36.2383 96.6562 36.2617C96.5156 36.2852 96.375 36.2969 96.2344 36.2969C96.0469 36.2969 95.9062 36.2734 95.8125 36.2266C95.7422 36.1797 95.6719 36.1328 95.6016 36.0859C95.5547 36.0156 95.4961 35.9453 95.4258 35.875C95.3789 35.8047 95.2969 35.7461 95.1797 35.6992C95.0156 35.6289 94.875 35.6172 94.7578 35.6641C94.6641 35.7109 94.5117 35.6406 94.3008 35.4531C94.0195 35.2188 93.7734 34.9375 93.5625 34.6094C93.375 34.2578 93.1875 33.8945 93 33.5195C92.8125 33.1445 92.6133 32.7695 92.4023 32.3945C92.1914 32.0195 91.9453 31.6914 91.6641 31.4102H91.3828C90.9609 31.4102 90.668 31.5859 90.5039 31.9375C90.3867 31.8672 90.2695 31.7852 90.1523 31.6914C90.0352 31.5742 89.9062 31.4805 89.7656 31.4102C89.2266 31.5742 88.6641 31.7148 88.0781 31.832C87.4922 31.9492 86.9062 32.0078 86.3203 32.0078H85.8281C85.6875 32.0078 85.5352 31.9844 85.3711 31.9375C85.1367 32.0312 84.9258 32.1484 84.7383 32.2891C84.5508 32.4062 84.3398 32.4648 84.1055 32.4648C83.9648 32.4648 83.8008 32.418 83.6133 32.3242C83.4727 32.3242 83.4023 32.3828 83.4023 32.5C83.4258 32.6172 83.3555 32.6758 83.1914 32.6758H82.875C82.5469 32.6758 82.2188 32.6875 81.8906 32.7109C81.5859 32.7344 81.2695 32.7461 80.9414 32.7461C80.4961 32.7461 80.0391 32.6875 79.5703 32.5703C79.4531 32.6406 79.3242 32.6758 79.1836 32.6758C79.0898 32.7227 79.0195 32.8047 78.9727 32.9219C78.9258 33.0156 78.8789 33.1094 78.832 33.2031C78.7852 33.2734 78.7148 33.3438 78.6211 33.4141C78.5508 33.4609 78.4453 33.4727 78.3047 33.4492C78.2578 33.7305 78.1406 33.9531 77.9531 34.1172C77.7656 34.2812 77.6719 34.5273 77.6719 34.8555C77.4141 34.9961 77.2031 35.1719 77.0391 35.3828C76.875 35.5938 76.7109 35.8164 76.5469 36.0508C76.3828 36.2852 76.207 36.5078 76.0195 36.7188C75.8555 36.9297 75.6445 37.0938 75.3867 37.2109C75.2695 37.3516 75.2344 37.5742 75.2812 37.8789C75.0234 38.0898 74.707 38.2773 74.332 38.4414C73.957 38.6055 73.6055 38.6875 73.2773 38.6875C72.5977 38.6875 72.1289 38.3242 71.8711 37.5977C71.8711 37.3633 71.8945 37.1172 71.9414 36.8594C71.9648 36.5781 72.0117 36.3203 72.082 36.0859C72.1523 35.8281 72.2578 35.6055 72.3984 35.418C72.5391 35.207 72.7383 35.0547 72.9961 34.9609C72.9961 34.75 72.9258 34.6094 72.7852 34.5391C72.6445 34.4453 72.5859 34.293 72.6094 34.082C73.2422 33.7773 73.793 33.3789 74.2617 32.8867C74.7305 32.3945 75.1523 31.8789 75.5273 31.3398C75.9258 30.7773 76.3242 30.2148 76.7227 29.6523C77.1211 29.0898 77.5664 28.5859 78.0586 28.1406V27.4023C78.7617 26.6523 79.2188 25.8086 79.4297 24.8711C79.6875 24.8242 79.8516 24.707 79.9219 24.5195C80.0156 24.332 80.0625 24.1094 80.0625 23.8516C80.1797 23.8516 80.25 23.8047 80.2734 23.7109C80.3203 23.5938 80.4258 23.5586 80.5898 23.6055C80.8008 23.043 81.0352 22.5273 81.293 22.0586C81.5508 21.5898 81.8086 21.1211 82.0664 20.6523C82.3242 20.1602 82.5469 19.6562 82.7344 19.1406C82.9453 18.625 83.0977 18.0508 83.1914 17.418C83.5195 17.3945 83.6953 17.2422 83.7188 16.9609C83.7656 16.6562 83.8125 16.3867 83.8594 16.1523C84.2109 15.8242 84.4688 15.4375 84.6328 14.9922C84.8203 14.5469 84.9844 14.0898 85.125 13.6211C85.2656 13.1289 85.418 12.6484 85.582 12.1797C85.7695 11.6875 86.0273 11.2539 86.3555 10.8789V10.7734C86.3555 10.6562 86.3086 10.5859 86.2148 10.5625C86.1211 10.5156 86.0742 10.4336 86.0742 10.3164C86.0977 10.293 86.1094 10.2695 86.1094 10.2461C86.3906 10.1289 86.6016 9.94141 86.7422 9.68359C86.8828 9.40234 87.0938 9.20312 87.375 9.08594C87.8672 9.48438 88.3008 9.73047 88.6758 9.82422C89.0508 9.89453 89.543 9.95312 90.1523 10C90.457 10.3281 90.6211 10.7266 90.6445 11.1953C90.6914 11.6406 90.7734 12.0859 90.8906 12.5312C91.0781 13.2812 91.2773 14.0195 91.4883 14.7461C91.7227 15.4492 91.8984 16.1758 92.0156 16.9258C92.0859 17.3711 92.2148 17.793 92.4023 18.1914C92.5898 18.5898 92.7188 19 92.7891 19.4219C92.8359 19.75 92.8359 20.125 92.7891 20.5469C92.7422 20.9453 92.7891 21.2969 92.9297 21.6016L93.1758 22.1641C93.293 22.4219 93.3867 22.6914 93.457 22.9727C93.5508 23.2539 93.6328 23.5352 93.7031 23.8164C93.8906 24.5195 94.0547 25.2812 94.1953 26.1016C94.3594 26.8984 94.6055 27.625 94.9336 28.2812C95.0508 28.5156 95.2266 28.6797 95.4609 28.7734C95.7188 28.8672 96 28.9375 96.3047 28.9844C96.6094 29.0078 96.9023 29.0195 97.1836 29.0195C97.4883 28.9961 97.7461 28.9844 97.957 28.9844H98.3086C98.4492 28.9844 98.5898 29.0078 98.7305 29.0547C98.8242 29.2422 98.8711 29.4062 98.8711 29.5469C98.8711 29.8281 98.7773 30.0508 98.5898 30.2148C98.4023 30.3789 98.3086 30.5664 98.3086 30.7773C98.3086 30.8945 98.3555 31.0234 98.4492 31.1641C98.3555 31.1406 98.2148 31.1289 98.0273 31.1289C97.4883 31.1289 96.9609 31.2227 96.4453 31.4102C96.6328 31.8086 96.8789 32.1484 97.1836 32.4297C97.5117 32.6875 97.8516 32.9336 98.2031 33.168C98.4375 32.9805 98.6836 32.8867 98.9414 32.8867C99.2227 32.8867 99.4805 32.957 99.7148 33.0977C99.9727 33.2148 100.242 33.2734 100.523 33.2734C100.734 33.2734 100.887 33.2383 100.98 33.168C101.168 33.3789 101.32 33.6016 101.438 33.8359C101.555 34.0469 101.707 34.2461 101.895 34.4336ZM90.8906 28.8086C90.8438 28.4102 90.7617 28.1289 90.6445 27.9648C90.5508 27.7773 90.4688 27.5547 90.3984 27.2969C90.3047 26.9688 90.2344 26.6172 90.1875 26.2422C90.1641 25.8672 90.1172 25.5039 90.0469 25.1523C89.8828 24.3555 89.6953 23.5586 89.4844 22.7617C89.2969 21.9648 89.0508 21.1914 88.7461 20.4414C88.8398 20.3008 88.8867 20.1719 88.8867 20.0547V19.9492C88.6758 19.7148 88.5234 19.4336 88.4297 19.1055C88.3359 18.7539 88.2422 18.4141 88.1484 18.0859C88.0781 17.7344 87.9727 17.418 87.832 17.1367C87.7148 16.832 87.5156 16.5859 87.2344 16.3984C87.1641 16.5391 87.1289 16.7031 87.1289 16.8906C87.1289 17.0547 87.1406 17.207 87.1641 17.3477C87.2109 17.4883 87.2344 17.6406 87.2344 17.8047C87 17.9219 86.8242 18.1094 86.707 18.3672C86.6133 18.6016 86.4492 18.7891 86.2148 18.9297C86.0273 19.6797 85.7578 20.3945 85.4062 21.0742C85.0547 21.7305 84.6797 22.3867 84.2812 23.043C83.9062 23.6992 83.543 24.3672 83.1914 25.0469C82.8398 25.7031 82.5586 26.3945 82.3477 27.1211C82.043 27.332 81.832 27.6016 81.7148 27.9297C81.6211 28.2578 81.5742 28.5859 81.5742 28.9141C81.7852 29.0312 82.0195 29.1016 82.2773 29.125C82.5586 29.125 82.8281 29.125 83.0859 29.125C83.3438 29.125 83.5898 29.1484 83.8242 29.1953C84.0586 29.2422 84.2695 29.3594 84.457 29.5469C84.7617 29.4531 85.0898 29.3945 85.4414 29.3711C85.8164 29.3242 86.1211 29.2188 86.3555 29.0547C86.8242 29.2188 87.3281 29.3008 87.8672 29.3008C88.1484 29.3008 88.418 29.2773 88.6758 29.2305C88.957 29.1836 89.2266 29.125 89.4844 29.0547C89.6953 29.1016 89.8594 29.1836 89.9766 29.3008C90.0938 29.3945 90.2695 29.4297 90.5039 29.4062C90.6211 29.3125 90.6914 29.2188 90.7148 29.125C90.7383 29.0078 90.7969 28.9023 90.8906 28.8086ZM127.77 34.4336C127.699 34.7617 127.547 35.0312 127.312 35.2422C127.102 35.4297 126.844 35.582 126.539 35.6992C126.234 35.8164 125.918 35.8984 125.59 35.9453C125.285 35.9688 125.004 35.9805 124.746 35.9805C124.629 35.9805 124.512 35.9805 124.395 35.9805C124.301 35.957 124.195 35.9453 124.078 35.9453C123.961 35.9453 123.902 36.0039 123.902 36.1211C123.902 36.2383 123.844 36.3203 123.727 36.3672C123.609 36.3203 123.492 36.2852 123.375 36.2617C123.258 36.2383 123.141 36.2266 123.023 36.2266C122.859 36.2266 122.695 36.2383 122.531 36.2617C122.391 36.2852 122.25 36.2969 122.109 36.2969C121.922 36.2969 121.781 36.2734 121.688 36.2266C121.617 36.1797 121.547 36.1328 121.477 36.0859C121.43 36.0156 121.371 35.9453 121.301 35.875C121.254 35.8047 121.172 35.7461 121.055 35.6992C120.891 35.6289 120.75 35.6172 120.633 35.6641C120.539 35.7109 120.387 35.6406 120.176 35.4531C119.895 35.2188 119.648 34.9375 119.438 34.6094C119.25 34.2578 119.062 33.8945 118.875 33.5195C118.688 33.1445 118.488 32.7695 118.277 32.3945C118.066 32.0195 117.82 31.6914 117.539 31.4102H117.258C116.836 31.4102 116.543 31.5859 116.379 31.9375C116.262 31.8672 116.145 31.7852 116.027 31.6914C115.91 31.5742 115.781 31.4805 115.641 31.4102C115.102 31.5742 114.539 31.7148 113.953 31.832C113.367 31.9492 112.781 32.0078 112.195 32.0078H111.703C111.562 32.0078 111.41 31.9844 111.246 31.9375C111.012 32.0312 110.801 32.1484 110.613 32.2891C110.426 32.4062 110.215 32.4648 109.98 32.4648C109.84 32.4648 109.676 32.418 109.488 32.3242C109.348 32.3242 109.277 32.3828 109.277 32.5C109.301 32.6172 109.23 32.6758 109.066 32.6758H108.75C108.422 32.6758 108.094 32.6875 107.766 32.7109C107.461 32.7344 107.145 32.7461 106.816 32.7461C106.371 32.7461 105.914 32.6875 105.445 32.5703C105.328 32.6406 105.199 32.6758 105.059 32.6758C104.965 32.7227 104.895 32.8047 104.848 32.9219C104.801 33.0156 104.754 33.1094 104.707 33.2031C104.66 33.2734 104.59 33.3438 104.496 33.4141C104.426 33.4609 104.32 33.4727 104.18 33.4492C104.133 33.7305 104.016 33.9531 103.828 34.1172C103.641 34.2812 103.547 34.5273 103.547 34.8555C103.289 34.9961 103.078 35.1719 102.914 35.3828C102.75 35.5938 102.586 35.8164 102.422 36.0508C102.258 36.2852 102.082 36.5078 101.895 36.7188C101.73 36.9297 101.52 37.0938 101.262 37.2109C101.145 37.3516 101.109 37.5742 101.156 37.8789C100.898 38.0898 100.582 38.2773 100.207 38.4414C99.832 38.6055 99.4805 38.6875 99.1523 38.6875C98.4727 38.6875 98.0039 38.3242 97.7461 37.5977C97.7461 37.3633 97.7695 37.1172 97.8164 36.8594C97.8398 36.5781 97.8867 36.3203 97.957 36.0859C98.0273 35.8281 98.1328 35.6055 98.2734 35.418C98.4141 35.207 98.6133 35.0547 98.8711 34.9609C98.8711 34.75 98.8008 34.6094 98.6602 34.5391C98.5195 34.4453 98.4609 34.293 98.4844 34.082C99.1172 33.7773 99.668 33.3789 100.137 32.8867C100.605 32.3945 101.027 31.8789 101.402 31.3398C101.801 30.7773 102.199 30.2148 102.598 29.6523C102.996 29.0898 103.441 28.5859 103.934 28.1406V27.4023C104.637 26.6523 105.094 25.8086 105.305 24.8711C105.562 24.8242 105.727 24.707 105.797 24.5195C105.891 24.332 105.938 24.1094 105.938 23.8516C106.055 23.8516 106.125 23.8047 106.148 23.7109C106.195 23.5938 106.301 23.5586 106.465 23.6055C106.676 23.043 106.91 22.5273 107.168 22.0586C107.426 21.5898 107.684 21.1211 107.941 20.6523C108.199 20.1602 108.422 19.6562 108.609 19.1406C108.82 18.625 108.973 18.0508 109.066 17.418C109.395 17.3945 109.57 17.2422 109.594 16.9609C109.641 16.6562 109.688 16.3867 109.734 16.1523C110.086 15.8242 110.344 15.4375 110.508 14.9922C110.695 14.5469 110.859 14.0898 111 13.6211C111.141 13.1289 111.293 12.6484 111.457 12.1797C111.645 11.6875 111.902 11.2539 112.23 10.8789V10.7734C112.23 10.6562 112.184 10.5859 112.09 10.5625C111.996 10.5156 111.949 10.4336 111.949 10.3164C111.973 10.293 111.984 10.2695 111.984 10.2461C112.266 10.1289 112.477 9.94141 112.617 9.68359C112.758 9.40234 112.969 9.20312 113.25 9.08594C113.742 9.48438 114.176 9.73047 114.551 9.82422C114.926 9.89453 115.418 9.95312 116.027 10C116.332 10.3281 116.496 10.7266 116.52 11.1953C116.566 11.6406 116.648 12.0859 116.766 12.5312C116.953 13.2812 117.152 14.0195 117.363 14.7461C117.598 15.4492 117.773 16.1758 117.891 16.9258C117.961 17.3711 118.09 17.793 118.277 18.1914C118.465 18.5898 118.594 19 118.664 19.4219C118.711 19.75 118.711 20.125 118.664 20.5469C118.617 20.9453 118.664 21.2969 118.805 21.6016L119.051 22.1641C119.168 22.4219 119.262 22.6914 119.332 22.9727C119.426 23.2539 119.508 23.5352 119.578 23.8164C119.766 24.5195 119.93 25.2812 120.07 26.1016C120.234 26.8984 120.48 27.625 120.809 28.2812C120.926 28.5156 121.102 28.6797 121.336 28.7734C121.594 28.8672 121.875 28.9375 122.18 28.9844C122.484 29.0078 122.777 29.0195 123.059 29.0195C123.363 28.9961 123.621 28.9844 123.832 28.9844H124.184C124.324 28.9844 124.465 29.0078 124.605 29.0547C124.699 29.2422 124.746 29.4062 124.746 29.5469C124.746 29.8281 124.652 30.0508 124.465 30.2148C124.277 30.3789 124.184 30.5664 124.184 30.7773C124.184 30.8945 124.23 31.0234 124.324 31.1641C124.23 31.1406 124.09 31.1289 123.902 31.1289C123.363 31.1289 122.836 31.2227 122.32 31.4102C122.508 31.8086 122.754 32.1484 123.059 32.4297C123.387 32.6875 123.727 32.9336 124.078 33.168C124.312 32.9805 124.559 32.8867 124.816 32.8867C125.098 32.8867 125.355 32.957 125.59 33.0977C125.848 33.2148 126.117 33.2734 126.398 33.2734C126.609 33.2734 126.762 33.2383 126.855 33.168C127.043 33.3789 127.195 33.6016 127.312 33.8359C127.43 34.0469 127.582 34.2461 127.77 34.4336ZM116.766 28.8086C116.719 28.4102 116.637 28.1289 116.52 27.9648C116.426 27.7773 116.344 27.5547 116.273 27.2969C116.18 26.9688 116.109 26.6172 116.062 26.2422C116.039 25.8672 115.992 25.5039 115.922 25.1523C115.758 24.3555 115.57 23.5586 115.359 22.7617C115.172 21.9648 114.926 21.1914 114.621 20.4414C114.715 20.3008 114.762 20.1719 114.762 20.0547V19.9492C114.551 19.7148 114.398 19.4336 114.305 19.1055C114.211 18.7539 114.117 18.4141 114.023 18.0859C113.953 17.7344 113.848 17.418 113.707 17.1367C113.59 16.832 113.391 16.5859 113.109 16.3984C113.039 16.5391 113.004 16.7031 113.004 16.8906C113.004 17.0547 113.016 17.207 113.039 17.3477C113.086 17.4883 113.109 17.6406 113.109 17.8047C112.875 17.9219 112.699 18.1094 112.582 18.3672C112.488 18.6016 112.324 18.7891 112.09 18.9297C111.902 19.6797 111.633 20.3945 111.281 21.0742C110.93 21.7305 110.555 22.3867 110.156 23.043C109.781 23.6992 109.418 24.3672 109.066 25.0469C108.715 25.7031 108.434 26.3945 108.223 27.1211C107.918 27.332 107.707 27.6016 107.59 27.9297C107.496 28.2578 107.449 28.5859 107.449 28.9141C107.66 29.0312 107.895 29.1016 108.152 29.125C108.434 29.125 108.703 29.125 108.961 29.125C109.219 29.125 109.465 29.1484 109.699 29.1953C109.934 29.2422 110.145 29.3594 110.332 29.5469C110.637 29.4531 110.965 29.3945 111.316 29.3711C111.691 29.3242 111.996 29.2188 112.23 29.0547C112.699 29.2188 113.203 29.3008 113.742 29.3008C114.023 29.3008 114.293 29.2773 114.551 29.2305C114.832 29.1836 115.102 29.125 115.359 29.0547C115.57 29.1016 115.734 29.1836 115.852 29.3008C115.969 29.3945 116.145 29.4297 116.379 29.4062C116.496 29.3125 116.566 29.2188 116.59 29.125C116.613 29.0078 116.672 28.9023 116.766 28.8086ZM167.215 28.2461C167.121 28.6445 166.934 28.9609 166.652 29.1953C166.395 29.4062 166.09 29.5703 165.738 29.6875C165.387 29.8047 165.012 29.8867 164.613 29.9336C164.238 29.9805 163.898 30.0156 163.594 30.0391C163.266 30.2031 162.973 30.3906 162.715 30.6016C162.457 30.7891 162.188 30.9766 161.906 31.1641C159.844 31.4219 157.805 31.7383 155.789 32.1133C153.773 32.4883 151.734 32.8047 149.672 33.0625C149.391 33.25 149.027 33.3789 148.582 33.4492C148.137 33.4961 147.668 33.543 147.176 33.5898C146.707 33.6133 146.238 33.6719 145.77 33.7656C145.301 33.8359 144.891 33.9766 144.539 34.1875C143.016 34.2578 141.539 34.5156 140.109 34.9609C139.852 34.8906 139.582 34.832 139.301 34.7852C139.043 34.7383 138.785 34.7148 138.527 34.7148C138.34 34.7148 138.129 34.7383 137.895 34.7852C137.66 34.8086 137.473 34.9141 137.332 35.1016C136.77 34.6562 136.102 34.4922 135.328 34.6094C134.695 34.3281 134.133 33.9766 133.641 33.5547C133.172 33.1328 132.809 32.5938 132.551 31.9375C132.574 31.5625 132.574 31.2812 132.551 31.0938C132.527 30.8828 132.363 30.6602 132.059 30.4258C132.059 30.2617 132.105 30.1328 132.199 30.0391C132.316 29.9453 132.387 29.8164 132.41 29.6523C132.316 29.4883 132.27 29.2891 132.27 29.0547C132.27 28.6562 132.34 28.2578 132.48 27.8594C132.621 27.4375 132.645 27.0273 132.551 26.6289C132.879 26.0898 133.254 25.5859 133.676 25.1172C134.098 24.625 134.52 24.1562 134.941 23.7109C135.387 23.2422 135.82 22.7734 136.242 22.3047C136.688 21.8359 137.098 21.3438 137.473 20.8281C137.918 20.6875 138.316 20.4766 138.668 20.1953C139.043 19.8906 139.395 19.5742 139.723 19.2461C140.074 18.918 140.426 18.6016 140.777 18.2969C141.129 17.9922 141.539 17.7461 142.008 17.5586C142.055 17.418 142.125 17.3008 142.219 17.207C142.336 17.0898 142.453 16.9844 142.57 16.8906C142.688 16.7969 142.793 16.6914 142.887 16.5742C143.004 16.457 143.086 16.3164 143.133 16.1523H142.816C141.762 16.1523 140.707 16.2227 139.652 16.3633C138.598 16.4805 137.543 16.6328 136.488 16.8203C135.457 16.9844 134.426 17.1602 133.395 17.3477C132.363 17.5352 131.32 17.6875 130.266 17.8047C129.867 18.0156 129.434 18.2031 128.965 18.3672C128.496 18.5312 128.027 18.6953 127.559 18.8594C127.113 19.0234 126.68 19.2109 126.258 19.4219C125.812 19.6328 125.426 19.8906 125.098 20.1953C125.027 20.2188 124.922 20.2305 124.781 20.2305C124.523 20.2305 124.301 20.1836 124.113 20.0898C123.926 19.9727 123.715 19.8906 123.48 19.8438C123.434 19.4688 123.363 19.1172 123.27 18.7891C123.152 18.4375 123.094 18.0742 123.094 17.6992C123.094 17.3945 123.141 17.1367 123.234 16.9258C123.562 16.9258 123.797 16.8203 123.938 16.6094C124.055 16.3984 124.242 16.2109 124.5 16.0469C124.57 16.1172 124.641 16.1523 124.711 16.1523C124.828 16.1523 124.934 16.1055 125.027 16.0117C125.121 15.918 125.238 15.8242 125.379 15.7305C125.52 15.6367 125.684 15.5547 125.871 15.4844C126.059 15.4141 126.305 15.3906 126.609 15.4141C127.312 15.0391 127.969 14.8047 128.578 14.7109C129.211 14.6172 129.902 14.5117 130.652 14.3945C130.84 14.3477 130.969 14.2891 131.039 14.2188C131.109 14.1484 131.191 14.043 131.285 13.9023L132.023 13.9375C133.031 13.9844 134.039 13.9258 135.047 13.7617C136.055 13.5742 137.051 13.375 138.035 13.1641C139.043 12.9531 140.051 12.7773 141.059 12.6367C142.09 12.4727 143.121 12.4375 144.152 12.5312C144.41 12.4141 144.668 12.3438 144.926 12.3203C145.207 12.2969 145.488 12.2852 145.77 12.2852C146.145 12.2852 146.555 12.3203 147 12.3906C147.445 12.4609 147.855 12.5898 148.23 12.7773C148.629 12.9648 148.945 13.2227 149.18 13.5508C149.438 13.8555 149.566 14.2422 149.566 14.7109C149.566 14.9688 149.508 15.2031 149.391 15.4141C149.273 15.625 149.133 15.8242 148.969 16.0117C148.805 16.1992 148.629 16.3867 148.441 16.5742C148.254 16.7383 148.078 16.9023 147.914 17.0664C147.656 17.3477 147.41 17.6523 147.176 17.9805C146.965 18.2852 146.707 18.5664 146.402 18.8242C146.238 18.8008 146.109 18.8359 146.016 18.9297C145.945 19.0234 145.828 19.0703 145.664 19.0703C145.359 19.2109 145.184 19.4688 145.137 19.8438C144.504 20.1016 143.895 20.4062 143.309 20.7578C142.723 21.1094 142.242 21.5898 141.867 22.1992C141.375 22.5039 140.906 22.8555 140.461 23.2539C140.039 23.6289 139.629 24.0273 139.23 24.4492C138.832 24.8711 138.434 25.3047 138.035 25.75C137.66 26.1719 137.262 26.582 136.84 26.9805C136.793 27.332 136.711 27.6602 136.594 27.9648C136.477 28.2695 136.348 28.5859 136.207 28.9141C136.207 29.1719 136.289 29.3945 136.453 29.582C136.617 29.7695 136.699 30.0156 136.699 30.3203C137.285 30.4375 137.859 30.5312 138.422 30.6016C139.008 30.6484 139.605 30.6719 140.215 30.6719C140.801 30.6719 141.387 30.6367 141.973 30.5664C142.559 30.4727 143.109 30.2969 143.625 30.0391C143.977 30.1328 144.34 30.1797 144.715 30.1797C145.23 30.1797 145.723 30.1328 146.191 30.0391C146.684 29.9219 147.176 29.875 147.668 29.8984C148.254 29.6875 148.852 29.5469 149.461 29.4766C150.094 29.3828 150.715 29.3125 151.324 29.2656C151.934 29.1953 152.543 29.1133 153.152 29.0195C153.785 28.9258 154.395 28.75 154.98 28.4922C155.309 28.5625 155.613 28.5742 155.895 28.5273C156.176 28.4805 156.48 28.457 156.809 28.457C157.043 28.457 157.324 28.5273 157.652 28.668C158.027 28.4805 158.414 28.3164 158.812 28.1758C159.234 28.0352 159.656 27.9648 160.078 27.9648C160.242 27.9648 160.406 27.9766 160.57 28C160.734 28.0234 160.887 28.0703 161.027 28.1406C161.074 28.1172 161.191 28.0703 161.379 28C161.566 27.9297 161.766 27.8594 161.977 27.7891C162.188 27.7188 162.387 27.6602 162.574 27.6133C162.762 27.543 162.879 27.5078 162.926 27.5078C163.113 27.5078 163.195 27.5664 163.172 27.6836C163.172 27.7773 163.23 27.8242 163.348 27.8242C163.746 27.8242 164.133 27.7539 164.508 27.6133C164.883 27.4492 165.27 27.3672 165.668 27.3672C165.832 27.3672 165.984 27.3789 166.125 27.4023C166.266 27.4258 166.43 27.4609 166.617 27.5078C166.711 27.6484 166.793 27.8008 166.863 27.9648C166.934 28.1055 167.051 28.1992 167.215 28.2461Z" fill="#707070"/>
</svg>
