<svg width="30" height="28" viewBox="0 0 30 28" fill="none" xmlns="http://www.w3.org/2000/svg">
<path d="M29.1405 13.5551C28.663 13.5551 28.281 13.9371 28.281 14.4146V22.2329C28.281 24.3594 26.5492 26.0848 24.4291 26.0848H5.57088C3.4444 26.0848 1.71902 24.353 1.71902 22.2329V14.2872C1.71902 13.8097 1.33701 13.4277 0.859508 13.4277C0.382003 13.4277 0 13.8097 0 14.2872V22.2329C0 25.308 2.50212 27.8038 5.57088 27.8038H24.4291C27.5042 27.8038 30 25.3017 30 22.2329V14.4146C30 13.9434 29.618 13.5551 29.1405 13.5551Z" fill="#707070"/>
<path d="M10.1424 6.93336L14.1407 2.93506V20.3735C14.1407 20.851 14.5227 21.233 15.0003 21.233C15.4778 21.233 15.8598 20.851 15.8598 20.3735V2.93506L19.8581 6.93336C20.0236 7.0989 20.2464 7.18803 20.4629 7.18803C20.6857 7.18803 20.9022 7.10526 21.0677 6.93336C21.4052 6.59593 21.4052 6.05475 21.0677 5.71732L15.6051 0.254669C15.4459 0.0955008 15.2231 0 15.0003 0C14.771 0 14.5546 0.0891341 14.3954 0.254669L8.93276 5.71732C8.59533 6.05475 8.59533 6.59593 8.93276 6.93336C9.26383 7.26443 9.81137 7.26443 10.1424 6.93336Z" fill="#707070"/>
</svg>
