<?xml version="1.0" standalone="no"?>
<!DOCTYPE svg PUBLIC "-//W3C//DTD SVG 20010904//EN"
 "http://www.w3.org/TR/2001/REC-SVG-20010904/DTD/svg10.dtd">
<svg version="1.0" xmlns="http://www.w3.org/2000/svg"
 width="718.000000pt" height="718.000000pt" viewBox="0 0 718.000000 718.000000"
 preserveAspectRatio="xMidYMid meet">
<metadata>
Created by potrace 1.11, written by Peter Selinger 2001-2013
</metadata>
<g transform="translate(0.000000,718.000000) scale(0.100000,-0.100000)"
fill="#000000" stroke="none">
<path d="M1312 6708 c-53 -28 -98 -51 -99 -52 -5 -5 -13 -72 -18 -156 -10
-166 -14 -211 -30 -271 -4 -18 0 -39 11 -60 18 -35 20 -79 4 -139 -9 -36 -20
-96 -25 -140 -9 -81 -16 -152 -20 -200 -10 -124 -18 -186 -26 -207 -5 -13 -7
-23 -5 -23 2 0 -2 -21 -10 -47 -16 -51 -20 -90 -29 -298 -8 -178 -14 -239 -34
-367 -6 -35 -13 -88 -17 -118 -3 -30 -8 -58 -11 -63 -2 -4 1 -32 8 -61 6 -30
8 -63 4 -73 -10 -23 -14 -38 -21 -88 -3 -22 -11 -46 -17 -53 -7 -9 -6 -24 3
-51 16 -50 18 -75 7 -131 -4 -25 -10 -62 -13 -83 -3 -21 -7 -44 -8 -52 -2 -15
-55 -61 -166 -144 -41 -31 -76 -59 -78 -63 -2 -5 -10 -8 -17 -8 -7 0 -15 -4
-17 -8 -4 -11 -201 -145 -284 -193 -76 -45 -247 -129 -262 -129 -16 0 -62 -48
-62 -65 0 -8 -4 -15 -8 -15 -7 0 -27 -46 -39 -85 -31 -110 -36 -167 -19 -255
26 -134 144 -194 386 -195 123 0 183 6 248 24 17 5 32 7 32 4 0 -3 7 0 15 7 8
7 15 10 15 7 0 -3 21 0 47 8 26 8 48 13 49 12 1 -1 9 -17 18 -35 9 -17 21 -32
27 -32 8 0 9 -30 4 -97 -10 -136 -7 -302 10 -463 11 -109 12 -122 18 -155 3
-16 9 -54 12 -84 4 -30 8 -61 10 -70 1 -9 5 -42 9 -74 3 -31 9 -83 12 -114 4
-31 13 -63 21 -71 17 -17 33 -55 39 -92 3 -14 19 -39 37 -55 17 -17 33 -35 34
-40 1 -6 5 -26 8 -45 7 -36 37 -101 64 -136 23 -31 39 -54 61 -91 22 -37 46
-41 111 -21 39 11 39 11 86 -38 67 -70 111 -89 203 -88 92 0 163 29 230 95 54
52 82 107 88 170 4 46 4 47 -69 121 -85 85 -124 115 -195 148 -47 23 -54 31
-83 95 -18 38 -36 77 -40 85 -23 45 -84 284 -96 375 -3 28 -8 59 -11 70 -2 11
-6 49 -9 85 -2 36 -5 65 -5 65 -4 0 -6 283 -2 303 5 24 28 26 77 8 53 -20 73
-25 105 -28 19 -2 34 -7 33 -13 -3 -16 28 -45 48 -45 21 0 52 -28 44 -40 -3
-4 22 -8 55 -8 49 0 64 -4 79 -21 10 -12 25 -21 32 -21 29 -1 124 -57 134 -78
10 -22 23 -29 70 -38 87 -16 209 -81 430 -229 166 -111 301 -188 333 -188 7 0
29 -20 49 -44 51 -64 104 -113 120 -113 7 0 13 -4 13 -8 0 -5 26 -15 58 -22
42 -10 69 -24 102 -55 25 -22 65 -55 90 -72 51 -35 241 -128 282 -138 15 -4
30 -14 33 -23 3 -10 35 -39 71 -67 89 -69 110 -87 117 -106 4 -11 21 -18 55
-21 28 -3 58 -12 67 -21 9 -10 32 -17 51 -17 30 0 92 -33 114 -61 9 -12 173
-94 295 -149 132 -59 278 -133 295 -150 3 -3 23 -17 45 -32 34 -23 46 -26 72
-19 23 7 33 6 36 -4 9 -22 129 -95 166 -101 111 -16 172 -30 328 -74 94 -28
183 -54 197 -60 40 -15 307 -80 341 -83 17 -1 46 -14 65 -28 50 -36 93 -46
192 -42 73 3 95 0 127 -17 42 -21 77 -21 161 0 71 18 93 18 125 -1 42 -24 75
-29 195 -30 98 -2 161 3 220 16 14 3 37 7 52 10 15 3 59 17 99 32 64 23 73 30
89 66 19 43 18 140 -2 164 -6 7 -8 13 -4 13 3 0 -8 23 -24 50 -17 28 -30 55
-30 60 0 12 -61 19 -192 25 -58 2 -135 9 -170 14 -34 6 -79 13 -98 15 -19 3
-64 10 -100 16 -36 6 -76 13 -90 15 -14 2 -43 7 -65 11 -22 4 -50 8 -62 8 -13
1 -23 3 -23 6 0 3 -8 6 -17 6 -17 1 -67 8 -138 20 -37 6 -80 11 -165 19 -45 5
-89 18 -145 45 -113 53 -253 107 -300 114 -40 6 -76 13 -105 19 -29 6 -80 38
-80 50 0 16 -58 55 -101 68 -38 11 -53 15 -159 35 -41 8 -79 16 -85 18 -31 10
-72 27 -85 35 -132 83 -190 117 -265 156 -49 26 -160 93 -245 150 -178 119
-214 137 -292 154 -32 7 -58 17 -58 22 0 5 -7 9 -15 9 -8 0 -26 18 -40 40 -21
34 -51 56 -85 65 -62 15 -113 41 -125 63 -33 61 -62 83 -111 84 -27 0 -48 6
-50 13 -3 7 -25 26 -50 41 -24 15 -47 36 -50 47 -3 10 -22 25 -42 34 -130 54
-288 145 -372 213 -14 11 -30 20 -37 20 -6 0 -13 4 -15 9 -5 14 -177 109 -209
116 -33 7 -40 16 -54 64 -6 19 -17 35 -25 37 -49 8 -115 50 -176 112 -42 42
-81 73 -99 78 -16 4 -41 15 -55 24 -14 10 -28 18 -33 18 -25 3 -66 40 -82 76
-15 35 -23 42 -41 38 -12 -2 -42 7 -66 22 -24 14 -53 24 -64 22 -14 -3 -36 11
-69 45 -27 27 -52 49 -56 49 -4 0 -14 6 -21 13 -49 46 -323 195 -378 206 -3 0
-48 22 -100 49 -103 53 -98 45 -101 146 0 33 13 48 172 182 145 122 128 108
368 287 195 145 341 257 396 305 124 108 154 132 161 131 5 -1 25 5 44 14 19
8 38 13 42 11 4 -3 15 8 25 23 44 70 153 158 279 225 29 15 80 56 115 90 35
35 87 81 114 103 28 22 52 43 55 46 3 3 43 34 90 69 47 36 87 67 90 70 3 3 23
18 45 34 164 120 328 268 395 355 13 18 39 39 57 46 18 8 38 19 45 25 48 41
123 89 148 95 17 4 35 16 42 28 11 22 64 89 123 155 17 19 101 105 187 192 87
87 159 166 161 176 1 11 15 40 30 65 28 47 37 122 17 134 -20 12 -50 84 -55
132 -7 59 -15 106 -19 110 -5 5 -75 12 -145 14 -38 1 -75 5 -81 9 -6 4 -26 -7
-43 -23 -18 -17 -55 -41 -84 -54 -29 -13 -55 -33 -58 -43 -4 -11 -23 -42 -44
-68 -46 -57 -71 -104 -71 -130 0 -25 -308 -323 -520 -502 -14 -12 -50 -43 -80
-70 -92 -81 -258 -216 -360 -295 -36 -28 -67 -52 -70 -55 -3 -3 -34 -28 -70
-55 -36 -28 -70 -54 -76 -60 -6 -5 -37 -28 -69 -50 -31 -22 -65 -48 -75 -57
-10 -9 -31 -25 -47 -35 -15 -10 -32 -21 -38 -26 -5 -4 -50 -38 -100 -74 -49
-37 -96 -73 -103 -80 -7 -7 -17 -13 -22 -13 -5 0 -15 -6 -22 -12 -23 -22 -91
-72 -158 -115 -36 -23 -70 -47 -77 -53 -7 -5 -14 -10 -17 -10 -8 0 -140 -83
-154 -97 -7 -7 -16 -13 -20 -13 -4 0 -25 -24 -46 -53 -68 -90 -220 -199 -307
-220 -23 -6 -28 -2 -44 34 -15 33 -19 63 -17 160 1 66 4 124 7 128 14 24 22
191 13 301 -3 35 -1 80 3 100 9 43 18 99 24 165 3 28 7 61 10 75 2 14 7 52 10
85 3 33 8 78 10 100 3 22 7 67 10 100 3 33 7 78 10 100 2 22 7 65 10 95 12
108 16 146 21 180 25 160 31 261 19 300 -4 14 -46 80 -92 148 -79 117 -102
157 -107 192 -2 10 -16 15 -45 16 -32 2 -63 -10 -139 -48z"/>
</g>
</svg>
